<?xml version="1.0" standalone="no"?>
<!DOCTYPE svg PUBLIC "-//W3C//DTD SVG 20010904//EN"
 "http://www.w3.org/TR/2001/REC-SVG-20010904/DTD/svg10.dtd">
<svg version="1.0" xmlns="http://www.w3.org/2000/svg"
 width="500.000000pt" height="500.000000pt" viewBox="0 0 500.000000 500.000000"
 preserveAspectRatio="xMidYMid meet">

<g transform="translate(0.000000,500.000000) scale(0.100000,-0.100000)"
fill="#000000" stroke="none">
<path d="M2324 4320 c-101 -21 -210 -100 -255 -184 l-24 -46 -176 0 c-210 0
-211 0 -217 -89 l-4 -61 -262 0 c-190 0 -265 -3 -274 -12 -9 -9 -12 -356 -12
-1498 0 -1428 1 -1488 18 -1503 17 -16 116 -17 1218 -17 l1200 0 124 35 c159
46 236 83 308 150 67 61 107 135 128 233 20 98 20 724 0 745 -8 8 -43 19 -78
26 -73 14 -133 32 -240 73 l-78 29 0 852 c0 519 -4 858 -10 867 -8 13 -54 16
-277 20 l-268 5 -5 63 c-3 40 -10 66 -20 72 -8 5 -95 10 -192 10 l-177 0 -18
38 c-27 57 -106 130 -176 162 -69 32 -165 44 -233 30z m184 -127 c35 -14 112
-79 112 -94 0 -5 -99 -9 -220 -9 -121 0 -220 4 -220 9 0 12 48 58 86 81 63 40
165 45 242 13z m522 -303 l0 -90 -630 0 -630 0 0 90 0 90 630 0 630 0 0 -90z
m-1378 -116 c8 -97 -60 -89 747 -89 585 0 711 2 724 14 12 10 17 30 17 72 l0
59 225 0 225 0 0 -776 0 -775 -26 20 c-37 29 -65 26 -100 -10 -62 -66 -231
-140 -418 -184 -54 -13 -103 -29 -107 -37 -12 -18 -11 -663 0 -724 20 -106 51
-165 120 -234 36 -36 75 -70 86 -77 16 -9 -196 -12 -957 -12 l-978 -1 0 1405
0 1405 219 0 219 0 4 -56z m1927 -1627 c73 -49 269 -125 394 -152 l28 -6 -3
-317 c-3 -301 -5 -320 -26 -373 -48 -120 -147 -192 -345 -249 l-107 -31 -106
31 c-181 52 -267 105 -321 197 -46 80 -53 133 -53 450 l0 293 28 5 c130 28
348 117 417 170 17 12 35 20 40 17 6 -3 30 -19 54 -35z"/>
<path d="M1359 3363 c-20 -24 -20 -552 0 -576 12 -15 45 -17 295 -17 206 0
285 3 294 12 17 17 17 569 0 586 -9 9 -88 12 -294 12 -250 0 -283 -2 -295 -17z
m491 -288 l0 -195 -195 0 -195 0 0 195 0 195 195 0 195 0 0 -195z"/>
<path d="M1668 3143 c-70 -70 -80 -77 -98 -65 -28 17 -47 15 -70 -8 -29 -29
-25 -45 21 -95 62 -68 76 -64 191 53 53 53 101 106 106 118 16 31 -6 68 -43
72 -26 2 -41 -9 -107 -75z"/>
<path d="M2096 3364 c-22 -21 -20 -50 4 -74 20 -20 33 -20 638 -20 543 0 620
2 640 16 24 17 30 62 10 82 -9 9 -166 12 -644 12 -562 0 -634 -2 -648 -16z"/>
<path d="M2097 3112 c-22 -25 -21 -48 3 -72 19 -19 33 -20 508 -20 530 0 525
-1 525 55 0 56 6 55 -528 55 -464 0 -493 -1 -508 -18z"/>
<path d="M1945 2617 c-14 -11 -20 -34 -26 -103 -4 -49 -8 -92 -8 -96 -1 -3
-21 -14 -46 -23 l-45 -18 -46 39 c-78 66 -111 86 -132 80 -30 -10 -162 -151
-162 -174 0 -12 24 -49 53 -83 28 -34 56 -66 60 -73 5 -6 0 -31 -12 -57 l-21
-46 -86 -7 c-109 -8 -121 -15 -130 -72 -10 -67 1 -183 18 -200 10 -10 46 -17
107 -21 l91 -6 21 -46 c12 -26 17 -51 12 -57 -4 -7 -32 -39 -60 -73 -29 -34
-53 -71 -53 -83 0 -23 132 -164 162 -174 21 -6 54 14 132 79 l45 39 46 -17
c25 -10 45 -20 46 -24 0 -3 4 -45 8 -93 4 -48 13 -94 21 -102 10 -13 35 -16
125 -16 140 0 141 1 151 126 l7 91 48 17 48 18 71 -61 c39 -34 78 -61 86 -61
17 0 159 132 176 163 11 21 -6 49 -78 134 l-42 48 22 45 21 45 88 7 c124 9
127 13 127 148 0 134 -2 136 -126 146 l-91 7 -20 47 -20 47 54 62 c67 78 76
96 64 119 -16 30 -158 162 -175 162 -8 0 -47 -27 -85 -60 -39 -33 -73 -60 -78
-60 -4 0 -26 8 -49 17 l-41 17 -7 90 c-10 124 -12 126 -146 126 -73 0 -112 -4
-125 -13z m159 -119 c3 -13 6 -45 6 -73 0 -74 16 -96 85 -121 33 -12 74 -29
90 -38 17 -9 35 -16 42 -16 6 0 41 26 78 57 53 45 70 55 83 47 39 -25 37 -39
-21 -108 -32 -36 -57 -72 -57 -80 0 -12 40 -108 73 -176 15 -30 42 -38 130
-39 l67 -1 0 -39 0 -38 -87 -7 c-47 -3 -92 -11 -99 -17 -7 -6 -18 -27 -25 -47
-6 -20 -22 -58 -35 -84 -13 -26 -24 -54 -24 -63 0 -8 25 -44 55 -80 30 -35 55
-68 55 -73 0 -5 -10 -18 -23 -30 l-22 -21 -50 45 c-28 24 -62 51 -77 59 -25
14 -31 14 -60 -2 -18 -9 -60 -26 -93 -38 -69 -24 -85 -46 -85 -120 0 -80 -7
-95 -45 -95 l-32 0 -7 81 c-4 45 -11 89 -16 99 -5 9 -28 22 -52 29 -24 7 -64
24 -90 37 -27 14 -54 21 -65 17 -10 -3 -44 -28 -75 -54 -31 -27 -60 -49 -65
-49 -5 0 -19 10 -31 23 l-21 22 45 50 c76 85 78 92 45 162 -16 33 -32 74 -36
92 -9 41 -26 49 -124 57 l-81 7 0 38 0 39 63 1 c95 0 129 16 143 64 7 22 23
64 37 94 30 63 27 72 -47 156 l-45 50 21 22 c12 13 25 23 30 23 5 0 38 -25 73
-55 36 -30 70 -55 75 -55 6 0 32 11 58 24 26 13 66 30 90 37 24 7 47 20 52 29
5 10 12 54 16 99 l7 81 32 0 c25 0 34 -5 39 -22z"/>
<path d="M1932 2180 c-111 -56 -166 -145 -167 -270 0 -62 5 -85 28 -132 71
-145 249 -213 392 -149 197 87 248 345 98 493 -67 66 -120 88 -214 88 -65 0
-85 -4 -137 -30z m228 -100 c101 -52 131 -202 58 -295 -23 -29 -78 -59 -125
-68 -71 -14 -165 38 -203 113 -18 34 -17 129 2 165 20 37 65 81 98 94 44 17
127 13 170 -9z"/>
<path d="M3582 1643 l-230 -238 -66 59 c-54 47 -71 57 -91 52 -29 -7 -49 -39
-40 -65 10 -32 171 -181 195 -181 17 0 79 57 224 208 255 262 311 323 319 343
9 26 -20 59 -53 59 -23 0 -64 -37 -258 -237z"/>
</g>
</svg>
