<?xml version="1.0" standalone="no"?>
<!DOCTYPE svg PUBLIC "-//W3C//DTD SVG 20010904//EN"
 "http://www.w3.org/TR/2001/REC-SVG-20010904/DTD/svg10.dtd">
<svg version="1.0" xmlns="http://www.w3.org/2000/svg"
 width="500.000000pt" height="500.000000pt" viewBox="0 0 500.000000 500.000000"
 preserveAspectRatio="xMidYMid meet">

<g transform="translate(0.000000,500.000000) scale(0.100000,-0.100000)"
fill="#000000" stroke="none">
<path d="M1137 4253 c-4 -3 -7 -301 -7 -662 l0 -656 -25 -78 c-72 -226 -72
-468 0 -684 24 -69 25 -86 25 -297 l0 -223 -27 -6 c-21 -4 -131 -120 -428
-447 -220 -243 -408 -458 -418 -478 -28 -59 -20 -159 18 -214 42 -61 122 -101
190 -96 93 8 113 24 395 335 l265 291 5 -331 c3 -183 7 -333 8 -335 1 -1 674
-1 1495 0 l1492 3 0 1940 0 1940 -1491 3 c-820 1 -1494 -1 -1497 -5z m2933
-1938 l0 -1885 -1440 0 -1440 0 0 341 0 341 99 107 c54 58 103 116 110 128 16
30 14 75 -5 101 -15 21 -13 25 48 92 35 38 67 70 71 70 5 0 41 -20 80 -44 83
-50 226 -109 310 -127 l57 -12 0 -354 0 -353 -60 0 -60 0 -2 277 -3 278 -115
0 -115 0 -3 -278 -2 -277 -78 0 c-85 0 -106 -8 -100 -36 3 -18 37 -19 1176
-22 1040 -2 1173 0 1178 13 10 26 -16 45 -62 45 l-44 0 0 511 c0 333 -4 517
-10 530 -10 17 -22 19 -113 19 -67 0 -107 -4 -115 -12 -9 -9 -12 -140 -12
-530 l0 -518 -60 0 -60 0 0 385 c0 370 -1 385 -19 395 -28 14 -194 13 -209 -2
-9 -9 -12 -110 -12 -395 l0 -383 -60 0 -60 0 0 268 c0 195 -3 271 -12 280 -16
16 -210 16 -226 0 -9 -9 -12 -85 -12 -280 l0 -268 -60 0 -59 0 -3 103 -3 102
-115 0 -115 0 -3 -102 -3 -103 -59 0 -60 0 0 344 0 343 78 6 c164 14 374 92
525 196 88 61 212 184 274 272 85 121 155 287 184 437 l12 62 181 0 c191 0
215 5 195 42 -9 16 -25 18 -189 18 l-180 0 0 90 0 90 180 0 c166 0 180 1 189
19 19 35 -7 40 -199 43 l-183 3 -13 60 c-6 33 -15 72 -19 88 l-7 27 206 0
c185 0 206 2 214 18 21 40 10 42 -222 42 l-221 0 -40 82 c-22 45 -41 86 -43
90 -2 4 111 8 251 8 216 0 258 2 271 15 8 9 13 22 10 30 -5 13 -50 15 -294 15
l-287 0 -49 61 c-27 34 -76 86 -109 115 l-60 54 391 0 c407 0 424 2 403 42 -9
17 -32 18 -445 18 l-436 0 -61 34 c-216 120 -497 165 -750 121 -286 -50 -548
-216 -714 -454 -26 -36 -50 -70 -55 -76 -4 -5 -8 246 -8 558 l0 567 1440 0
1440 0 0 -1885z m-1707 1230 c161 -28 317 -98 454 -202 284 -216 440 -574 403
-928 -14 -138 -41 -232 -105 -360 -139 -282 -371 -468 -693 -557 -64 -18 -106
-22 -247 -22 -148 -1 -181 2 -259 23 -388 102 -672 384 -772 767 -22 84 -26
121 -27 244 0 196 24 302 105 469 115 234 323 422 570 515 165 62 391 82 571
51z m-1093 -1688 c25 -32 49 -65 54 -72 7 -9 -9 -33 -54 -84 -35 -39 -68 -71
-72 -71 -4 0 -8 75 -7 168 0 160 1 166 17 142 9 -13 37 -51 62 -83z m185 -198
c7 -11 -116 -145 -130 -141 -5 2 -25 18 -43 36 l-33 33 63 70 63 69 37 -29
c21 -15 40 -33 43 -38z m2145 -439 l0 -500 -55 0 -55 0 0 500 0 500 55 0 55 0
0 -500z m-2350 279 c55 -50 100 -97 100 -104 0 -16 -21 -40 -450 -514 -179
-197 -340 -369 -359 -382 -45 -31 -128 -33 -168 -3 -71 52 -94 144 -54 209 38
62 794 885 813 885 10 0 63 -41 118 -91z m890 -434 l0 -345 -55 0 -55 0 0 345
0 345 55 0 55 0 0 -345z m-360 -95 l0 -250 -60 0 -60 0 0 250 0 250 60 0 60 0
0 -250z m1090 0 l0 -250 -55 0 -55 0 0 250 0 250 55 0 55 0 0 -250z"/>
<path d="M1770 3812 c-21 -17 -21 -19 -5 -35 15 -16 86 -17 945 -17 820 0 930
2 944 15 19 19 11 41 -17 49 -12 3 -432 6 -933 6 -865 0 -913 -1 -934 -18z"/>
<path d="M2055 3470 c-152 -17 -285 -66 -421 -155 -196 -127 -343 -330 -406
-560 -31 -112 -31 -353 0 -466 93 -344 345 -600 687 -700 70 -21 101 -24 250
-24 200 0 266 15 432 95 534 260 703 928 358 1415 -53 75 -177 194 -252 242
-194 124 -427 179 -648 153z m325 -80 c253 -61 473 -235 595 -471 204 -395 80
-885 -289 -1139 -131 -90 -306 -148 -473 -157 -429 -24 -823 267 -924 682 -34
137 -32 329 4 448 106 347 350 567 722 650 11 3 79 5 150 6 99 1 150 -4 215
-19z"/>
<path d="M2292 3298 c-9 -9 -12 -104 -12 -364 l0 -352 316 -161 c173 -89 320
-161 325 -161 31 0 65 183 56 301 -27 348 -261 638 -587 728 -88 25 -83 24
-98 9z m130 -84 c273 -97 466 -351 493 -649 5 -60 -8 -211 -19 -223 -3 -2
-128 60 -280 138 l-276 142 0 309 c0 170 2 309 4 309 3 0 38 -12 78 -26z"/>
<path d="M2005 3144 c-110 -27 -202 -81 -295 -174 -94 -94 -145 -180 -175
-300 -22 -84 -22 -226 0 -309 20 -78 72 -188 92 -196 9 -3 118 57 262 144
l246 150 5 -292 5 -292 80 1 c92 1 191 31 283 86 70 41 180 149 217 213 l29
48 -22 17 c-12 10 -136 80 -276 156 l-256 138 -2 310 -3 311 -65 2 c-36 1 -92
-5 -125 -13z m135 -279 c0 -129 -2 -235 -5 -235 -3 0 -239 342 -258 377 -15
25 152 91 236 92 l27 1 0 -235z m-255 -325 c94 -18 174 -36 178 -40 6 -5 -296
-197 -405 -257 -12 -6 -47 72 -63 139 -8 35 -15 97 -15 139 l0 77 68 -13 c37
-7 144 -28 237 -45z"/>
<path d="M1800 2160 c-147 -97 -226 -156 -228 -168 -4 -25 89 -109 181 -164
76 -46 216 -98 264 -98 26 0 34 5 38 23 7 32 23 530 18 545 -11 27 -58 4 -273
-138z m203 -154 l-6 -208 -26 5 c-58 12 -144 51 -213 96 -130 86 -135 70 69
204 98 63 179 114 180 113 2 -2 0 -96 -4 -210z"/>
</g>
</svg>
