<?xml version="1.0" standalone="no"?>
<!DOCTYPE svg PUBLIC "-//W3C//DTD SVG 20010904//EN"
 "http://www.w3.org/TR/2001/REC-SVG-20010904/DTD/svg10.dtd">
<svg version="1.0" xmlns="http://www.w3.org/2000/svg"
 width="500.000000pt" height="500.000000pt" viewBox="0 0 500.000000 500.000000"
 preserveAspectRatio="xMidYMid meet">

<g transform="translate(0.000000,500.000000) scale(0.100000,-0.100000)"
fill="#000000" stroke="none">
<path d="M2680 4176 c-89 -20 -130 -36 -220 -82 -107 -55 -200 -125 -278 -209
l-61 -65 -734 0 c-638 0 -736 -2 -747 -15 -7 -8 -10 -22 -6 -30 5 -13 91 -15
721 -15 393 0 715 -2 715 -3 0 -2 -22 -40 -48 -84 -27 -44 -54 -94 -61 -112
l-13 -31 -267 0 c-280 0 -310 -4 -295 -43 6 -15 29 -17 270 -17 145 0 264 -4
264 -8 0 -5 -9 -34 -19 -64 -10 -31 -24 -81 -31 -112 l-11 -56 -610 0 c-556 0
-610 -1 -616 -16 -16 -43 -1 -44 625 -44 l595 0 -7 -46 c-3 -26 -6 -78 -6
-115 l0 -69 -120 0 c-98 0 -122 -3 -126 -15 -14 -36 14 -45 137 -45 66 0 119
-2 119 -4 0 -28 37 -185 57 -239 98 -276 286 -476 525 -558 365 -124 750 21
1019 383 62 84 134 221 167 318 l19 55 116 3 c65 1 117 -1 117 -6 0 -5 -149
-402 -331 -883 -182 -481 -336 -886 -341 -902 l-10 -27 -542 0 -543 0 -11 38
c-15 50 -74 117 -126 145 -58 30 -164 30 -223 -1 -62 -32 -109 -77 -140 -133
l-28 -49 -155 -2 c-142 -3 -155 -5 -158 -22 -2 -10 2 -22 10 -27 7 -5 74 -9
148 -9 l136 0 -4 -67 c-7 -127 52 -239 153 -289 46 -22 65 -26 117 -22 152 10
263 127 291 307 l11 71 612 0 612 0 -5 -58 c-11 -119 52 -245 147 -294 123
-65 272 -15 358 119 33 51 62 145 62 200 l0 33 134 0 c102 0 136 3 145 14 7 8
50 118 96 246 l85 232 -86 194 c-47 106 -92 198 -98 204 -8 6 -128 11 -314 12
l-301 3 191 503 c104 276 187 509 184 517 -4 12 -32 15 -146 15 -87 0 -140 4
-140 10 0 5 7 52 16 102 22 124 14 360 -15 470 -91 348 -286 575 -576 674 -68
23 -99 27 -215 30 -85 2 -155 -2 -190 -10z m328 -61 c290 -69 503 -299 593
-641 21 -77 24 -112 24 -264 0 -133 -4 -193 -18 -250 -57 -242 -151 -421 -304
-581 -120 -126 -254 -209 -405 -253 -165 -47 -303 -43 -461 14 -488 178 -683
868 -404 1425 144 289 384 491 652 550 82 18 246 18 323 0z m1218 -2485 c40
-91 74 -172 74 -181 0 -12 -102 -304 -141 -401 l-11 -28 -124 0 -123 0 -22 50
c-26 61 -89 121 -152 145 -117 45 -271 -26 -337 -155 -20 -39 -21 -40 -75 -40
-34 0 -55 4 -55 11 0 10 239 649 276 737 l13 32 302 -2 301 -3 74 -165z
m-2268 -493 c27 -17 49 -44 67 -82 86 -174 -37 -414 -212 -415 -186 -1 -266
240 -141 426 68 100 195 132 286 71z m1769 14 c24 -11 55 -37 72 -61 120 -166
-2 -450 -193 -450 -94 0 -163 56 -192 157 -62 214 133 435 313 354z"/>
<path d="M2712 4005 c-35 -8 -101 -32 -147 -54 -290 -141 -494 -459 -535 -835
-40 -358 122 -712 385 -842 96 -47 165 -64 265 -64 200 0 375 82 535 251 182
192 280 431 292 709 15 360 -139 664 -400 789 -126 61 -256 76 -395 46z m226
-54 c11 -6 10 -22 -6 -85 -17 -66 -18 -78 -6 -91 8 -8 21 -12 29 -9 14 6 20
21 46 126 l11 47 56 -25 c116 -51 217 -152 286 -284 56 -108 57 -102 -26 -152
-71 -44 -93 -72 -67 -89 9 -5 40 7 85 32 65 35 73 38 78 22 13 -44 26 -154 26
-225 0 -74 -17 -228 -26 -238 -3 -2 -33 4 -68 13 -92 24 -116 23 -116 -8 0
-20 7 -26 43 -35 23 -6 61 -17 84 -23 l42 -12 -19 -55 c-32 -90 -97 -211 -153
-284 -29 -38 -57 -71 -63 -73 -5 -2 -27 26 -48 62 -31 52 -43 65 -60 63 -33
-5 -30 -31 13 -102 23 -37 41 -70 41 -74 0 -14 -109 -90 -174 -122 -33 -16
-88 -36 -121 -45 -56 -14 -225 -21 -237 -9 -3 3 3 39 14 81 21 84 19 106 -14
101 -18 -2 -26 -16 -44 -83 -23 -87 -22 -86 -89 -56 -107 48 -213 159 -281
295 l-45 89 72 43 c76 45 90 59 82 81 -8 21 -31 16 -99 -22 -34 -19 -64 -35
-67 -35 -13 0 -29 139 -29 245 1 103 14 220 26 232 2 2 39 -5 82 -16 67 -17
81 -18 93 -6 25 24 4 42 -74 63 -43 12 -80 24 -83 27 -3 3 11 47 32 99 37 95
132 251 179 294 l25 24 38 -66 c42 -72 56 -83 79 -60 14 15 13 21 -16 73 -18
31 -38 65 -45 77 -12 18 -11 23 8 41 70 62 175 118 271 143 74 19 212 26 235
11z"/>
<path d="M2836 3294 c-242 -56 -291 -73 -283 -96 6 -18 352 -398 362 -398 35
0 34 26 -6 163 -22 76 -37 142 -34 146 3 5 65 52 139 105 74 53 138 101 141
106 9 15 -14 40 -34 39 -9 -1 -137 -30 -285 -65z m129 -42 c-6 -5 -40 -30 -76
-55 -37 -26 -71 -53 -77 -60 -8 -9 -4 -36 14 -97 13 -46 24 -86 24 -87 0 -2
-47 49 -105 114 -58 65 -100 120 -94 122 29 9 286 69 304 70 11 1 15 -3 10 -7z"/>
<path d="M3635 1658 c-7 -18 -38 -91 -69 -162 -42 -98 -53 -132 -45 -143 9
-10 71 -13 299 -13 l288 0 27 79 26 80 -48 93 -48 93 -208 3 -208 2 -14 -32z
m425 -97 c32 -67 33 -71 20 -115 l-13 -46 -238 0 -238 0 35 83 c20 45 42 97
49 115 l14 32 169 0 168 0 34 -69z"/>
<path d="M1794 1036 c-104 -45 -119 -212 -24 -261 41 -21 82 -19 120 8 88 60
92 195 8 247 -38 23 -61 24 -104 6z m86 -66 c47 -47 8 -150 -58 -150 -54 0
-73 100 -27 145 29 30 58 32 85 5z"/>
<path d="M3581 1032 c-56 -28 -76 -64 -76 -135 0 -46 5 -69 20 -89 39 -52 100
-62 156 -25 91 60 91 205 0 252 -39 19 -58 19 -100 -3z m89 -62 c45 -45 8
-150 -54 -150 -46 0 -72 71 -44 123 26 49 65 60 98 27z"/>
<path d="M971 2926 c-9 -11 -8 -18 4 -30 23 -23 396 -24 415 -1 7 8 10 22 6
30 -8 21 -407 23 -425 1z"/>
<path d="M637 2643 c-13 -12 -7 -41 9 -47 9 -3 262 -6 564 -6 474 0 549 2 560
15 10 12 10 18 0 30 -11 13 -87 15 -570 15 -306 0 -560 -3 -563 -7z"/>
<path d="M640 2345 c-7 -8 -10 -22 -6 -30 5 -13 68 -15 528 -13 503 3 523 4
526 22 2 10 -2 22 -10 27 -7 5 -241 9 -519 9 -436 0 -508 -2 -519 -15z"/>
<path d="M645 2056 c-11 -8 -16 -19 -12 -30 6 -15 59 -16 612 -16 553 0 606 1
612 16 16 43 0 44 -612 44 -473 0 -585 -3 -600 -14z"/>
<path d="M633 1754 c-4 -11 1 -22 13 -31 15 -11 97 -13 461 -11 300 2 445 6
453 14 6 6 8 18 4 27 -6 16 -46 17 -465 17 -417 0 -460 -2 -466 -16z"/>
<path d="M634 1465 c-4 -8 -1 -22 6 -30 11 -13 42 -15 194 -13 l181 3 0 25 0
25 -188 3 c-161 2 -188 0 -193 -13z"/>
<path d="M1304 1465 c-4 -8 -1 -22 6 -30 11 -13 71 -15 414 -15 220 0 407 4
414 9 8 5 12 17 10 27 -3 18 -21 19 -421 22 -366 2 -418 0 -423 -13z"/>
<path d="M637 1183 c-15 -15 -6 -43 16 -48 12 -3 184 -4 382 -3 l360 3 0 25 0
25 -376 3 c-206 1 -378 -1 -382 -5z"/>
</g>
</svg>
