<?xml version="1.0" standalone="no"?>
<!DOCTYPE svg PUBLIC "-//W3C//DTD SVG 20010904//EN"
 "http://www.w3.org/TR/2001/REC-SVG-20010904/DTD/svg10.dtd">
<svg version="1.0" xmlns="http://www.w3.org/2000/svg"
 width="500.000000pt" height="500.000000pt" viewBox="0 0 500.000000 500.000000"
 preserveAspectRatio="xMidYMid meet">

<g transform="translate(0.000000,500.000000) scale(0.100000,-0.100000)"
fill="#000000" stroke="none">
<path d="M2274 4919 c-321 -23 -690 -149 -954 -325 -468 -311 -780 -770 -896
-1315 -35 -169 -45 -513 -20 -689 49 -338 168 -635 369 -918 l58 -82 1608 0
1607 0 26 28 c52 54 161 230 223 357 89 183 147 361 180 555 21 124 29 374 16
530 -38 476 -244 915 -590 1261 -357 357 -806 563 -1307 599 -152 11 -159 11
-320 -1z m333 -99 c842 -75 1530 -660 1738 -1479 73 -288 73 -640 1 -936 -52
-214 -144 -423 -270 -613 l-67 -102 -1565 0 -1564 0 -71 108 c-138 207 -232
435 -284 682 -36 171 -46 487 -21 660 72 488 310 918 681 1228 397 333 914
497 1422 452z"/>
<path d="M1140 3825 l0 -455 895 0 895 0 0 455 0 455 -895 0 -895 0 0 -455z
m880 0 l0 -425 -425 0 -425 0 0 425 0 425 425 0 425 0 0 -425z m880 0 l0 -425
-425 0 -425 0 0 425 0 425 425 0 425 0 0 -425z"/>
<path d="M1870 3670 c-11 -11 -20 -28 -20 -38 0 -24 31 -52 58 -52 47 0 69 61
34 93 -25 22 -48 21 -72 -3z m60 -35 c0 -19 -20 -29 -32 -17 -15 15 -2 43 17
36 8 -3 15 -12 15 -19z"/>
<path d="M2120 3670 c-24 -24 -25 -38 -4 -68 18 -26 65 -30 84 -7 18 22 15 66
-6 82 -25 19 -51 16 -74 -7z m57 -26 c8 -21 -13 -42 -28 -27 -13 13 -5 43 11
43 6 0 13 -7 17 -16z"/>
<path d="M3206 4264 c-3 -9 -6 -209 -6 -445 l0 -428 -122 -3 -123 -3 -3 -114
c-2 -85 1 -117 10 -123 17 -10 859 -10 876 0 9 6 12 38 10 123 l-3 114 -122 3
-123 3 0 428 c0 236 -3 436 -6 445 -5 14 -32 16 -194 16 -162 0 -189 -2 -194
-16z m354 -444 l0 -430 -160 0 -160 0 0 430 0 430 160 0 160 0 0 -430z m250
-550 l0 -90 -410 0 -410 0 0 90 0 90 410 0 410 0 0 -90z"/>
<path d="M1716 3043 c-4 -9 -6 -105 -6 -212 l2 -196 -88 -3 -88 -3 49 33 c112
76 125 220 29 310 -43 40 -75 48 -188 48 -96 0 -105 -2 -148 -29 -108 -68
-124 -209 -34 -296 23 -22 50 -45 61 -52 16 -10 4 -12 -73 -12 l-92 -1 2 -452
3 -453 1330 0 1330 0 3 453 2 452 -79 0 -80 0 -3 38 -3 37 -130 0 -130 0 -3
-38 c-3 -35 -6 -38 -30 -35 -23 3 -27 8 -30 41 l-3 37 -129 0 -129 0 -3 -37
-3 -38 -547 -3 -548 -2 0 215 0 215 -119 0 c-102 0 -120 -2 -125 -17z m214
-198 l0 -185 -90 0 -90 0 0 185 0 185 90 0 90 0 0 -185z m-476 125 c104 -51
121 -198 31 -269 -84 -65 -198 -43 -245 48 -74 145 69 292 214 221z m102 -1
c56 -27 86 -75 86 -138 0 -77 -33 -126 -107 -157 l-40 -16 27 29 c75 79 75
197 1 276 -32 32 -24 34 33 6z m1734 -309 c0 -19 -7 -20 -100 -20 -93 0 -100
1 -100 20 0 19 7 20 100 20 93 0 100 -1 100 -20z m320 0 c0 -19 -7 -20 -95
-20 -88 0 -95 1 -95 20 0 19 7 20 95 20 88 0 95 -1 95 -20z m-1592 -482 l-3
-423 -422 -3 -423 -2 0 425 0 425 425 0 425 0 -2 -422z m880 0 l-3 -423 -422
-3 -423 -2 0 425 0 425 425 0 425 0 -2 -422z m880 0 l-3 -423 -422 -3 -423 -2
0 425 0 425 425 0 425 0 -2 -422z"/>
<path d="M1303 2950 c-64 -38 -88 -142 -46 -198 50 -68 124 -89 192 -54 100
50 106 186 12 249 -43 29 -113 31 -158 3z m137 -27 c78 -46 70 -160 -15 -200
-73 -35 -155 23 -155 108 0 84 96 136 170 92z"/>
<path d="M1184 2576 c-3 -8 -4 -31 -2 -52 l3 -39 408 -3 407 -2 0 55 0 55
-405 0 c-338 0 -407 -2 -411 -14z m786 -41 l0 -25 -375 0 -375 0 0 25 0 25
375 0 375 0 0 -25z"/>
<path d="M1870 2200 c-11 -11 -20 -28 -20 -38 0 -41 69 -69 98 -40 18 18 14
63 -6 81 -25 22 -48 21 -72 -3z m58 -37 c-5 -26 -38 -29 -38 -4 0 15 6 21 21
21 14 0 19 -5 17 -17z"/>
<path d="M2064 2576 c-3 -8 -4 -31 -2 -52 l3 -39 408 -3 407 -2 0 55 0 55
-405 0 c-338 0 -407 -2 -411 -14z m786 -41 l0 -25 -375 0 -375 0 0 25 0 25
375 0 375 0 0 -25z"/>
<path d="M2120 2200 c-24 -24 -25 -38 -4 -68 35 -51 117 -8 95 50 -16 42 -59
50 -91 18z m58 -37 c-2 -10 -10 -18 -18 -18 -8 0 -16 8 -18 18 -2 12 3 17 18
17 15 0 20 -5 18 -17z"/>
<path d="M3062 2493 l3 -58 270 -3 c149 -1 280 0 293 3 21 5 23 10 20 58 l-3
52 -293 3 -293 2 3 -57z m548 2 l0 -25 -260 0 -260 0 0 25 0 25 260 0 260 0 0
-25z"/>
<path d="M3002 2078 l3 -283 350 0 350 0 0 280 0 280 -353 3 -352 2 2 -282z
m668 2 l0 -250 -320 0 -320 0 0 250 0 250 320 0 320 0 0 -250z"/>
</g>
</svg>
